<svg width="224" height="60" viewBox="0 0 224 60" fill="none" xmlns="https://www.w3.org/2000/svg">
<path fill-rule="evenodd" clip-rule="evenodd" d="M9.86345 13.0926C9.86345 5.86174 15.7252 0 22.956 0H70.418C77.6488 0 83.5105 5.86174 83.5105 13.0926V36.4568C83.5105 43.6876 77.6488 49.5493 70.418 49.5493H22.956C15.7252 49.5493 9.86345 43.6876 9.86345 36.4568V13.0926ZM66.4009 15.3808L66.1703 30.614L62.9494 30.5792L63.18 15.346L66.4009 15.3808ZM77.2487 19.8799C77.1983 19.2792 76.95 18.8103 76.5037 18.4732C76.0575 18.1361 75.4476 17.9634 74.674 17.955C74.1483 17.9493 73.7034 18.0189 73.3391 18.1637C72.9749 18.3036 72.6942 18.5015 72.4969 18.7572C72.3045 19.013 72.2059 19.3046 72.2009 19.6319C72.1869 19.9045 72.2403 20.1431 72.3612 20.3478C72.487 20.5525 72.6604 20.7304 72.8813 20.8816C73.1023 21.0278 73.3583 21.157 73.6492 21.2693C73.9402 21.3766 74.2513 21.4692 74.5824 21.5472L75.9461 21.8893C76.6084 22.0452 77.2153 22.2502 77.767 22.5041C78.3186 22.758 78.795 23.0682 79.1962 23.4346C79.5974 23.801 79.9058 24.2308 80.1215 24.7241C80.3422 25.2175 80.4502 25.7816 80.4456 26.4164C80.4265 27.3486 80.1762 28.1543 79.6948 28.8335C79.2183 29.5078 78.5359 30.0286 77.6475 30.3959C76.7641 30.7583 75.7026 30.9328 74.4628 30.9194C73.233 30.9061 72.1647 30.7061 71.2579 30.3194C70.3561 29.9327 69.6554 29.3672 69.1559 28.6228C68.6613 27.8735 68.4099 26.9508 68.4017 25.8547L71.5185 25.8884C71.5454 26.3995 71.6853 26.8275 71.938 27.1725C72.1957 27.5125 72.5414 27.7717 72.9752 27.9499C73.414 28.1233 73.9111 28.213 74.4665 28.219C75.012 28.2249 75.4868 28.1507 75.8909 27.9963C76.2999 27.8421 76.6181 27.6248 76.8456 27.3446C77.073 27.0643 77.1895 26.7407 77.1951 26.3738C77.2002 26.0316 77.1029 25.7429 76.9031 25.5077C76.7083 25.2725 76.4187 25.071 76.0344 24.9031C75.655 24.7354 75.1887 24.5815 74.6353 24.4417L72.9828 24.0072C71.7031 23.6809 70.6964 23.1815 69.9626 22.509C69.2288 21.8365 68.8729 20.9374 68.895 19.8119C68.904 18.8895 69.1616 18.0863 69.668 17.4024C70.1793 16.7186 70.8742 16.188 71.7529 15.8106C72.6315 15.4333 73.6262 15.2506 74.7371 15.2626C75.8677 15.2749 76.8516 15.4789 77.6888 15.8748C78.5309 16.2708 79.1823 16.8159 79.643 17.5103C80.1037 18.2046 80.3346 19.0056 80.3357 19.9132L77.2487 19.8799ZM36.4736 5.149C37.9179 5.149 39.9971 6.35586 41.8958 10.0553C42.0984 10.45 42.2934 10.864 42.4801 11.2963C40.4748 11.7986 38.384 12.4524 36.2563 13.2532C34.2394 12.5391 32.264 11.9596 30.3724 11.5188C30.5875 11.0057 30.8143 10.5172 31.0513 10.0553C32.9501 6.35586 35.0293 5.149 36.4736 5.149ZM27.3386 10.9187C29.438 5.56544 32.7488 2.11192 36.4736 2.11192C40.1339 2.11192 43.3945 5.44695 45.4985 10.6425C52.1621 9.43495 57.4755 10.1123 59.3637 12.876C61.2172 15.589 59.36 19.7123 54.9688 23.9047C59.9322 28.3485 62.1312 32.8036 60.1681 35.6768C58.2248 38.5213 52.6532 39.1557 45.7155 37.7997C43.6226 43.3105 40.2622 46.8834 36.4736 46.8834C32.6243 46.8834 29.2171 43.1951 27.1322 37.5334C20.5689 38.688 15.3489 37.9958 13.481 35.2617C11.577 32.475 13.5884 28.2001 18.2397 23.8909C14.1666 19.8476 12.4952 15.9115 14.2855 13.2911C16.0963 10.6406 21.0574 9.90905 27.3386 10.9187ZM30.1386 36.8975C30.4213 37.6249 30.7267 38.3074 31.0513 38.94C32.9501 42.6394 35.0293 43.8463 36.4736 43.8463C37.9179 43.8463 39.9971 42.6394 41.8958 38.94C42.1883 38.3702 42.4651 37.7599 42.7237 37.1127C40.6439 36.5668 38.4782 35.8608 36.2798 34.9998C34.1786 35.7778 32.1159 36.4119 30.1386 36.8975ZM46.6163 35.0232C47.7895 35.2529 48.9108 35.419 49.9666 35.5215C52.3248 35.7504 54.187 35.6451 55.5027 35.3321C56.8097 35.0213 57.27 34.5918 57.4386 34.3451C57.6072 34.0984 57.8171 33.5468 57.4822 32.4348C57.145 31.3155 56.3218 29.9 54.9081 28.2886C54.2438 27.5314 53.4714 26.7563 52.5992 25.975C51.1369 27.1515 49.4892 28.3159 47.6822 29.4385C47.4541 31.4114 47.0923 33.2856 46.6163 35.0232ZM44.3292 31.372C44.1428 32.4069 43.9164 33.3973 43.6552 34.3361C42.5784 34.0488 41.4714 33.7144 40.3431 33.3328C40.9508 33.0591 41.5591 32.7738 42.167 32.4772C42.905 32.1172 43.6261 31.7483 44.3292 31.372ZM47.9493 25.5998C48.7266 25.0577 49.4605 24.5114 50.1483 23.9648C49.4448 23.4334 48.6986 22.9037 47.9122 22.3793C47.9458 23.0766 47.963 23.7832 47.963 24.4977C47.963 24.8672 47.9584 25.2346 47.9493 25.5998ZM44.7203 20.4112C44.8545 21.724 44.9259 23.0902 44.9259 24.4977C44.9259 25.5648 44.8848 26.6082 44.8065 27.6226C43.447 28.4316 41.9927 29.2187 40.4537 29.9695C39.0667 30.6463 37.6838 31.2579 36.3196 31.8044C35.2848 31.3682 34.2413 30.8949 33.1954 30.3846C31.388 29.5028 29.6974 28.571 28.1399 27.6124C28.0621 26.6012 28.0213 25.5612 28.0213 24.4977C28.0213 23.0872 28.093 21.7182 28.2277 20.4029C29.5326 19.6333 30.9232 18.8843 32.3909 18.1682C33.7012 17.5289 35.0078 16.9477 36.2983 16.4247C37.9287 17.05 39.5904 17.7696 41.2582 18.5833C42.466 19.1726 43.6217 19.7842 44.7203 20.4112ZM47.5525 18.5463C49.3682 19.6272 51.0365 20.7528 52.5329 21.8955C53.1087 21.3455 53.6333 20.8004 54.1037 20.2642C55.5174 18.6528 56.3406 17.2373 56.6777 16.118C57.0126 15.0061 56.8027 14.4544 56.6341 14.2077C56.4656 13.961 56.0052 13.5315 54.6982 13.2207C53.3826 12.9078 51.5203 12.8025 49.1621 13.0314C48.3014 13.1149 47.3971 13.2408 46.4566 13.4088C46.9256 15.0082 47.2962 16.7311 47.5525 18.5463ZM43.4797 14.0535C43.7292 14.8809 43.9512 15.752 44.1418 16.6611C43.7566 16.4636 43.3665 16.2683 42.9715 16.0756C42.1352 15.6676 41.2981 15.2811 40.4632 14.9163C41.4911 14.5887 42.499 14.3011 43.4797 14.0535ZM25.3932 18.5567C23.6584 19.623 22.0672 20.7285 20.6423 21.8474C20.2494 21.4544 19.8834 21.0646 19.5454 20.6793C18.1318 19.0679 17.3086 17.6524 16.9714 16.5331C16.6365 15.4212 16.8464 14.8695 17.015 14.6228C17.1836 14.3761 17.6439 13.9466 18.9509 13.6358C20.2666 13.3229 22.1288 13.2176 24.487 13.4465C25.106 13.5065 25.7475 13.5885 26.4089 13.6923C25.9775 15.2143 25.6345 16.8445 25.3932 18.5567ZM28.8171 16.6053C28.9876 15.7992 29.1827 15.0232 29.3998 14.2812C30.2733 14.486 31.1705 14.7235 32.0862 14.9938C31.6167 15.2092 31.1471 15.4315 30.6776 15.6605C30.0448 15.9693 29.4244 16.2845 28.8171 16.6053ZM25.032 22.4431C25.0004 23.1197 24.9842 23.805 24.9842 24.4977C24.9842 24.8383 24.9881 25.1773 24.9958 25.5142C24.2811 24.9958 23.6064 24.4746 22.9743 23.954C23.6217 23.4486 24.3084 22.9439 25.032 22.4431ZM25.2615 29.408C23.5335 28.2985 21.9616 27.1525 20.5703 25.9982C19.8921 26.631 19.2809 27.2582 18.741 27.8735C17.3273 29.4849 16.5041 30.9004 16.167 32.0197C15.832 33.1317 16.042 33.6833 16.2105 33.93C16.3791 34.1767 16.8395 34.6062 18.1464 34.917C19.4621 35.23 21.3244 35.3353 23.6826 35.1064C24.5035 35.0267 25.364 34.9085 26.2578 34.7519C25.8154 33.0821 25.4776 31.2898 25.2615 29.408ZM28.6248 31.4093C28.7954 32.3508 28.9991 33.2554 29.232 34.1176C30.2137 33.8728 31.223 33.5876 32.2529 33.2622C31.996 33.1409 31.739 33.0176 31.4821 32.8923C30.4988 32.4126 29.5454 31.9172 28.6248 31.4093ZM36.4545 26.6748C37.9245 26.6748 39.0068 25.5243 39.0068 24.2387C39.0068 22.9532 37.9245 21.8027 36.4545 21.8027C34.9845 21.8027 33.9023 22.9532 33.9023 24.2387C33.9023 25.5243 34.9845 26.6748 36.4545 26.6748ZM36.4545 29.7118C39.5414 29.7118 42.0438 27.2614 42.0438 24.2387C42.0438 21.216 39.5414 18.7656 36.4545 18.7656C33.3677 18.7656 30.8653 21.216 30.8653 24.2387C30.8653 27.2614 33.3677 29.7118 36.4545 29.7118ZM224 39.0519C224 48.452 214.621 56.0722 203.052 56.0722H20.9481C9.37877 56.0722 0 48.452 0 39.0519C0 50.6212 9.37877 60 20.9481 60H203.052C214.621 60 224 50.6212 224 39.0519ZM98.4873 23.4144V6.27501H94.8636V23.4144H98.4873ZM101.402 10.5598V23.4144H104.967V16.1418C104.967 15.6174 105.084 15.1543 105.318 14.7526C105.558 14.3509 105.882 14.0385 106.289 13.8153C106.702 13.5866 107.171 13.4722 107.695 13.4722C107.941 13.4722 108.211 13.4917 108.507 13.5308C108.803 13.5698 109.034 13.6145 109.201 13.6647V10.5013C109.045 10.4622 108.864 10.4315 108.658 10.4092C108.451 10.3869 108.259 10.3757 108.08 10.3757C107.36 10.3757 106.724 10.5822 106.172 10.995C105.62 11.4023 105.226 12.0049 104.992 12.8027H104.858V10.5598H101.402ZM112.89 22.862C113.844 23.3976 114.982 23.6654 116.305 23.6654C117.365 23.6654 118.299 23.5036 119.108 23.18C119.923 22.8508 120.587 22.3934 121.1 21.8075C121.619 21.2161 121.962 20.5243 122.129 19.7321L118.832 19.5145C118.709 19.8381 118.531 20.1115 118.296 20.3346C118.062 20.5578 117.78 20.7252 117.451 20.8368C117.122 20.9483 116.759 21.0041 116.363 21.0041C115.766 21.0041 115.25 20.8786 114.815 20.6275C114.38 20.3765 114.042 20.0194 113.802 19.5563C113.568 19.0933 113.451 18.5437 113.451 17.9077V17.8993H122.205V16.9201C122.205 15.8266 122.051 14.8726 121.744 14.058C121.437 13.2379 121.008 12.5572 120.455 12.016C119.909 11.4748 119.267 11.0703 118.531 10.8025C117.8 10.5292 117.01 10.3925 116.162 10.3925C114.901 10.3925 113.802 10.6714 112.865 11.2294C111.933 11.7873 111.211 12.5656 110.697 13.5643C110.184 14.5629 109.927 15.7234 109.927 17.0457C109.927 18.4014 110.184 19.5759 110.697 20.569C111.211 21.5565 111.942 22.3208 112.89 22.862ZM113.454 15.6899C113.476 15.2283 113.594 14.8071 113.811 14.4262C114.045 14.0078 114.369 13.6758 114.781 13.4304C115.2 13.1793 115.68 13.0538 116.221 13.0538C116.74 13.0538 117.194 13.1681 117.585 13.3969C117.981 13.62 118.291 13.9297 118.514 14.3258C118.737 14.7219 118.849 15.1766 118.849 15.6899H113.454ZM128.096 23.4144V15.9828C128.102 15.4305 128.205 14.9591 128.406 14.5685C128.612 14.1724 128.897 13.8711 129.259 13.6647C129.628 13.4582 130.052 13.355 130.532 13.355C131.246 13.355 131.806 13.5782 132.214 14.0245C132.621 14.4653 132.822 15.079 132.816 15.8657V23.4144H136.381V15.2296C136.381 14.231 136.197 13.3718 135.829 12.6521C135.461 11.9268 134.945 11.3688 134.281 10.9783C133.617 10.5877 132.839 10.3925 131.946 10.3925C130.992 10.3925 130.18 10.6128 129.511 11.0536C128.841 11.4888 128.364 12.0802 128.079 12.8278H127.929V10.5598H124.531V23.4144H128.096ZM141.635 22.862C142.589 23.3976 143.727 23.6654 145.049 23.6654C146.109 23.6654 147.044 23.5036 147.853 23.18C148.667 22.8508 149.331 22.3934 149.845 21.8075C150.364 21.2161 150.707 20.5243 150.874 19.7321L147.577 19.5145C147.454 19.8381 147.275 20.1115 147.041 20.3346C146.807 20.5578 146.525 20.7252 146.196 20.8368C145.867 20.9483 145.504 21.0041 145.108 21.0041C144.511 21.0041 143.995 20.8786 143.56 20.6275C143.124 20.3765 142.787 20.0194 142.547 19.5563C142.313 19.0933 142.196 18.5437 142.196 17.9077V17.8993H150.949V16.9201C150.949 15.8266 150.796 14.8726 150.489 14.058C150.182 13.2379 149.753 12.5572 149.2 12.016C148.653 11.4748 148.012 11.0703 147.275 10.8025C146.545 10.5292 145.755 10.3925 144.907 10.3925C143.646 10.3925 142.547 10.6714 141.61 11.2294C140.678 11.7873 139.956 12.5656 139.442 13.5643C138.929 14.5629 138.672 15.7234 138.672 17.0457C138.672 18.4014 138.929 19.5759 139.442 20.569C139.956 21.5565 140.686 22.3208 141.635 22.862ZM142.199 15.6899C142.22 15.2283 142.339 14.8071 142.555 14.4262C142.79 14.0078 143.113 13.6758 143.526 13.4304C143.945 13.1793 144.424 13.0538 144.966 13.0538C145.484 13.0538 145.939 13.1681 146.33 13.3969C146.726 13.62 147.036 13.9297 147.259 14.3258C147.482 14.7219 147.593 15.1766 147.593 15.6899H142.199ZM103.299 35.6309C103.807 36.0047 104.094 36.5292 104.161 37.2042H107.634C107.618 36.1833 107.344 35.285 106.814 34.5095C106.284 33.734 105.542 33.1286 104.588 32.6935C103.64 32.2583 102.529 32.0407 101.257 32.0407C100.008 32.0407 98.8918 32.2583 97.9099 32.6935C96.9279 33.1286 96.1552 33.734 95.5917 34.5095C95.0338 35.285 94.7576 36.1916 94.7632 37.2294C94.7576 38.4958 95.1733 39.5029 96.0101 40.2505C96.847 40.9981 97.988 41.5477 99.433 41.8992L101.299 42.3678C101.924 42.5184 102.451 42.6858 102.881 42.8699C103.316 43.0541 103.645 43.2772 103.868 43.5394C104.097 43.8017 104.212 44.1253 104.212 44.5102C104.212 44.9231 104.086 45.2885 103.835 45.6065C103.584 45.9246 103.23 46.1728 102.772 46.3514C102.32 46.5299 101.787 46.6192 101.174 46.6192C100.549 46.6192 99.9881 46.5243 99.4916 46.3346C99.0006 46.1394 98.6073 45.852 98.3116 45.4726C98.0214 45.0877 97.8569 44.6079 97.8178 44.0332H94.3113C94.3392 45.2662 94.6377 46.3012 95.2067 47.138C95.7814 47.9693 96.5792 48.597 97.6002 49.021C98.6268 49.445 99.8319 49.657 101.216 49.657C102.61 49.657 103.802 49.4478 104.789 49.0294C105.782 48.6054 106.541 48.0112 107.065 47.2468C107.595 46.4769 107.863 45.5675 107.869 44.5186C107.863 43.8045 107.732 43.1712 107.475 42.6189C107.224 42.0665 106.87 41.5867 106.413 41.1794C105.955 40.7722 105.414 40.429 104.789 40.1501C104.164 39.8711 103.478 39.6479 102.73 39.4806L101.19 39.1123C100.817 39.0286 100.465 38.9282 100.136 38.8111C99.8068 38.6883 99.5167 38.546 99.2656 38.3842C99.0145 38.2169 98.8165 38.0188 98.6714 37.7901C98.5319 37.5613 98.4678 37.2935 98.4789 36.9867C98.4789 36.6184 98.5849 36.2893 98.797 35.9991C99.0145 35.709 99.327 35.4831 99.7343 35.3213C100.142 35.1539 100.641 35.0702 101.232 35.0702C102.103 35.0702 102.792 35.2571 103.299 35.6309ZM112.649 48.8285C113.598 49.3865 114.73 49.6654 116.047 49.6654C117.191 49.6654 118.181 49.4562 119.018 49.0378C119.855 48.6193 120.511 48.0391 120.985 47.297C121.465 46.5494 121.732 45.6846 121.788 44.7027H118.424C118.357 45.1546 118.215 45.5424 117.997 45.866C117.785 46.184 117.515 46.4267 117.185 46.5941C116.862 46.7614 116.496 46.8451 116.089 46.8451C115.537 46.8451 115.054 46.6945 114.641 46.3932C114.228 46.0919 113.908 45.654 113.679 45.0793C113.456 44.5046 113.344 43.8072 113.344 42.9871C113.344 42.1781 113.458 41.4891 113.687 40.92C113.916 40.3509 114.234 39.9185 114.641 39.6228C115.054 39.3216 115.537 39.1709 116.089 39.1709C116.742 39.1709 117.269 39.369 117.671 39.7651C118.078 40.1556 118.329 40.6717 118.424 41.3133H121.788C121.738 40.3202 121.467 39.4555 120.976 38.719C120.485 37.9825 119.819 37.4107 118.976 37.0034C118.134 36.5961 117.152 36.3925 116.03 36.3925C114.73 36.3925 113.609 36.6742 112.666 37.2377C111.723 37.7956 110.995 38.5739 110.482 39.5726C109.974 40.5657 109.72 41.7206 109.72 43.0373C109.72 44.3373 109.971 45.4866 110.474 46.4853C110.981 47.4839 111.707 48.265 112.649 48.8285ZM127.636 49.4144V41.9828C127.641 41.4305 127.747 40.9591 127.954 40.5685C128.166 40.1724 128.456 39.8711 128.824 39.6647C129.198 39.4582 129.628 39.355 130.113 39.355C130.838 39.355 131.402 39.5754 131.804 40.0162C132.211 40.4569 132.412 41.0734 132.406 41.8657V49.4144H135.971V41.2296C135.977 40.2254 135.793 39.3634 135.419 38.6437C135.051 37.9184 134.532 37.3633 133.862 36.9783C133.198 36.5877 132.42 36.3925 131.527 36.3925C130.551 36.3925 129.739 36.6101 129.092 37.0452C128.445 37.4748 127.976 38.069 127.686 38.8278H127.535V32.275H124.071V49.4144H127.636ZM142.342 49.4144V41.9828C142.348 41.4305 142.451 40.9591 142.652 40.5685C142.858 40.1724 143.143 39.8711 143.505 39.6647C143.874 39.4582 144.298 39.355 144.777 39.355C145.491 39.355 146.052 39.5782 146.459 40.0245C146.867 40.4653 147.068 41.079 147.062 41.8657V49.4144H150.627V41.2296C150.627 40.231 150.443 39.3718 150.075 38.6521C149.707 37.9268 149.19 37.3688 148.527 36.9783C147.863 36.5877 147.084 36.3925 146.192 36.3925C145.238 36.3925 144.426 36.6129 143.756 37.0536C143.087 37.4888 142.61 38.0802 142.325 38.8278H142.175V36.5598H138.777V49.4144H142.342ZM155.881 48.862C156.835 49.3976 157.973 49.6654 159.295 49.6654C160.355 49.6654 161.29 49.5036 162.099 49.18C162.913 48.8508 163.577 48.3934 164.09 47.8075C164.609 47.2161 164.952 46.5243 165.12 45.7321L161.823 45.5145C161.7 45.8381 161.521 46.1115 161.287 46.3346C161.053 46.5578 160.771 46.7252 160.442 46.8368C160.113 46.9483 159.75 47.0041 159.354 47.0041C158.757 47.0041 158.241 46.8786 157.805 46.6275C157.37 46.3765 157.033 46.0194 156.793 45.5563C156.559 45.0933 156.441 44.5437 156.441 43.9077V43.8993H165.195V42.9201C165.195 41.8266 165.042 40.8726 164.735 40.058C164.428 39.2379 163.998 38.5572 163.446 38.016C162.899 37.4748 162.258 37.0703 161.521 36.8025C160.79 36.5292 160.001 36.3925 159.153 36.3925C157.892 36.3925 156.793 36.6714 155.856 37.2294C154.924 37.7873 154.201 38.5656 153.688 39.5643C153.175 40.5629 152.918 41.7234 152.918 43.0457C152.918 44.4014 153.175 45.5759 153.688 46.569C154.201 47.5565 154.932 48.3208 155.881 48.862ZM156.445 41.6899C156.466 41.2283 156.585 40.8071 156.801 40.4262C157.036 40.0078 157.359 39.6758 157.772 39.4304C158.19 39.1793 158.67 39.0538 159.211 39.0538C159.73 39.0538 160.185 39.1681 160.576 39.3969C160.972 39.62 161.281 39.9297 161.505 40.3258C161.728 40.7219 161.839 41.1766 161.839 41.6899H156.445ZM171.087 36.5598H167.522V49.4144H171.087V36.5598ZM167.949 34.3756C168.328 34.7271 168.783 34.9028 169.313 34.9028C169.843 34.9028 170.295 34.7271 170.668 34.3756C171.048 34.0185 171.237 33.5917 171.237 33.0952C171.237 32.6042 171.048 32.183 170.668 31.8315C170.295 31.4744 169.843 31.2959 169.313 31.2959C168.783 31.2959 168.328 31.4744 167.949 31.8315C167.575 32.183 167.388 32.6042 167.388 33.0952C167.388 33.5917 167.575 34.0185 167.949 34.3756ZM176.027 48.8704C176.819 49.3725 177.703 49.6236 178.679 49.6236C179.371 49.6236 179.957 49.5092 180.437 49.2804C180.922 49.0517 181.316 48.7644 181.617 48.4185C181.924 48.067 182.161 47.7127 182.328 47.3556H182.479V49.4144H185.994V32.275H182.437V38.719H182.328C182.172 38.3731 181.943 38.0216 181.642 37.6645C181.346 37.3019 180.956 37.0006 180.47 36.7607C179.991 36.5152 179.391 36.3925 178.671 36.3925C177.728 36.3925 176.861 36.638 176.068 37.1289C175.282 37.6143 174.651 38.348 174.177 39.3299C173.703 40.3063 173.466 41.5309 173.466 43.0038C173.466 44.4377 173.694 45.6484 174.152 46.6359C174.615 47.6178 175.24 48.3627 176.027 48.8704ZM181.265 46.3179C180.869 46.6303 180.384 46.7865 179.809 46.7865C179.223 46.7865 178.73 46.6275 178.328 46.3095C177.932 45.9859 177.628 45.5396 177.416 44.9705C177.209 44.3959 177.106 43.7347 177.106 42.9871C177.106 42.2451 177.209 41.5923 177.416 41.0288C177.622 40.4653 177.926 40.0245 178.328 39.7065C178.73 39.3885 179.223 39.2295 179.809 39.2295C180.384 39.2295 180.872 39.3829 181.274 39.6898C181.675 39.9966 181.982 40.4318 182.194 40.9953C182.406 41.5588 182.512 42.2227 182.512 42.9871C182.512 43.7514 182.404 44.4182 182.186 44.9872C181.974 45.5563 181.667 45.9999 181.265 46.3179ZM191.369 48.862C192.323 49.3976 193.461 49.6654 194.783 49.6654C195.843 49.6654 196.778 49.5036 197.587 49.18C198.401 48.8508 199.065 48.3934 199.578 47.8075C200.097 47.2161 200.44 46.5243 200.608 45.7321L197.311 45.5145C197.188 45.8381 197.009 46.1115 196.775 46.3346C196.541 46.5578 196.259 46.7252 195.93 46.8368C195.6 46.9483 195.238 47.0041 194.842 47.0041C194.245 47.0041 193.729 46.8786 193.293 46.6275C192.858 46.3765 192.521 46.0194 192.281 45.5563C192.047 45.0933 191.929 44.5437 191.929 43.9077V43.8993H200.683V42.9201C200.683 41.8266 200.53 40.8726 200.223 40.058C199.916 39.2379 199.486 38.5572 198.934 38.016C198.387 37.4748 197.746 37.0703 197.009 36.8025C196.278 36.5292 195.489 36.3925 194.641 36.3925C193.38 36.3925 192.281 36.6714 191.344 37.2294C190.412 37.7873 189.689 38.5656 189.176 39.5643C188.663 40.5629 188.406 41.7234 188.406 43.0457C188.406 44.4014 188.663 45.5759 189.176 46.569C189.689 47.5565 190.42 48.3208 191.369 48.862ZM191.933 41.6899C191.954 41.2283 192.073 40.8071 192.289 40.4262C192.524 40.0078 192.847 39.6758 193.26 39.4304C193.678 39.1793 194.158 39.0538 194.699 39.0538C195.218 39.0538 195.673 39.1681 196.064 39.3969C196.46 39.62 196.769 39.9297 196.992 40.3258C197.216 40.7219 197.327 41.1766 197.327 41.6899H191.933ZM206.466 36.5598H203.01V49.4144H206.575V42.1418C206.575 41.6174 206.692 41.1543 206.926 40.7526C207.166 40.3509 207.49 40.0385 207.897 39.8153C208.31 39.5866 208.779 39.4722 209.303 39.4722C209.548 39.4722 209.819 39.4917 210.115 39.5308C210.41 39.5698 210.642 39.6145 210.809 39.6647V36.5013C210.653 36.4622 210.472 36.4315 210.265 36.4092C210.059 36.3869 209.867 36.3757 209.688 36.3757C208.968 36.3757 208.332 36.5822 207.78 36.995C207.228 37.4023 206.834 38.0049 206.6 38.8027H206.466V36.5598Z" fill="#FCF1E4"/>
</svg>
